<svg xmlns="http://www.w3.org/2000/svg" viewBox="0 0 256 256">
  <defs>
    <linearGradient id="bg" x1="0" y1="0" x2="1" y2="1">
      <stop offset="0%" stop-color="#17110d" />
      <stop offset="100%" stop-color="#a56e4a" />
    </linearGradient>
  </defs>
  <rect width="256" height="256" rx="52" fill="url(#bg)" />
  <path
    d="M77 53h54c34 0 55 17 55 45 0 18-10 31-28 39 24 8 36 24 36 47 0 40-31 60-81 60H77V53Zm31 29v42h23c15 0 24-7 24-21 0-14-9-21-24-21h-23Zm0 70v63h30c16 0 25-4 31-10 5-5 8-12 8-21 0-21-13-32-38-32h-31Z"
    fill="#f7f1eb"
  />
</svg>
